<svg id="svg" xmlns="http://www.w3.org/2000/svg" xmlns:xlink="http://www.w3.org/1999/xlink" width="512" height="512" viewBox="0, 0, 512,512"><g id="svgg"><path id="path0" d="M240.578 227.009 C 240.867 227.839,240.961 229.132,240.787 229.884 C 240.580 230.775,240.627 231.014,240.922 230.572 C 241.491 229.719,242.773 234.653,242.217 235.554 C 241.994 235.914,242.056 236.024,242.373 235.828 C 242.877 235.517,244.322 239.965,244.176 241.375 C 244.140 241.719,244.311 242.000,244.556 242.000 C 244.800 242.000,245.000 242.284,245.000 242.631 C 245.000 242.979,246.242 247.641,247.761 252.993 C 249.279 258.344,250.411 263.010,250.276 263.361 C 250.142 263.713,250.223 264.000,250.457 264.000 C 250.692 264.000,251.001 264.450,251.145 265.000 C 251.463 266.217,260.349 266.564,260.733 265.375 C 260.844 265.031,262.437 259.125,264.274 252.250 C 266.110 245.375,267.843 239.525,268.124 239.250 C 268.471 238.911,268.551 239.105,268.371 239.851 C 268.225 240.457,268.276 241.019,268.483 241.101 C 268.690 241.183,270.255 246.425,271.961 252.750 C 273.667 259.075,275.179 264.652,275.321 265.143 C 275.548 265.931,276.118 266.020,280.143 265.893 L 284.708 265.750 285.557 262.500 C 286.024 260.712,287.102 256.715,287.953 253.617 C 288.804 250.518,289.500 247.861,289.500 247.712 C 289.500 247.563,289.704 247.567,289.953 247.721 C 290.203 247.875,290.303 247.605,290.177 247.122 C 290.050 246.638,291.196 241.758,292.723 236.278 C 294.250 230.799,295.500 226.132,295.500 225.908 C 295.500 224.991,286.582 225.445,286.327 226.375 C 286.195 226.856,284.672 233.051,282.942 240.141 L 279.797 253.033 277.164 242.891 C 275.716 237.314,274.164 231.119,273.715 229.125 L 272.900 225.500 268.296 225.500 L 263.692 225.500 262.917 228.625 C 260.815 237.110,256.869 251.823,256.537 252.417 C 256.314 252.815,255.606 250.735,254.795 247.304 C 254.043 244.123,253.592 241.256,253.791 240.933 C 253.998 240.599,253.940 240.478,253.657 240.653 C 253.055 241.025,250.272 229.316,250.697 228.207 C 250.863 227.775,250.775 227.580,250.494 227.754 C 250.218 227.924,250.000 227.495,250.000 226.780 L 250.000 225.500 245.026 225.500 L 240.052 225.500 240.578 227.009 M303.778 235.699 C 302.419 236.081,301.069 236.343,300.778 236.279 C 300.488 236.216,300.428 236.261,300.646 236.381 C 300.864 236.500,300.013 237.250,298.756 238.047 C 296.169 239.688,295.661 240.541,296.496 241.845 C 297.018 242.661,297.049 242.664,296.803 241.875 C 296.370 240.482,296.829 240.851,298.046 242.875 C 298.666 243.906,299.233 244.830,299.306 244.927 C 299.378 245.024,300.633 244.521,302.094 243.807 C 305.020 242.379,309.908 241.435,309.302 242.416 C 309.072 242.788,309.222 242.884,309.728 242.689 C 310.815 242.272,313.150 243.889,312.795 244.813 C 312.635 245.229,312.728 245.418,313.006 245.246 C 313.284 245.075,313.500 245.517,313.500 246.256 C 313.500 247.551,313.458 247.567,310.875 247.249 C 304.950 246.521,298.413 248.854,296.316 252.445 C 293.380 257.472,296.589 265.233,302.017 266.233 C 306.675 267.092,308.794 266.774,312.029 264.732 C 313.984 263.498,314.500 263.571,314.500 265.083 C 314.500 265.895,314.953 266.000,318.460 266.000 L 322.420 266.000 322.167 255.375 C 321.834 241.362,321.021 239.015,315.548 236.253 C 313.260 235.099,306.963 234.802,303.778 235.699 M370.250 235.951 C 369.150 236.462,367.758 237.353,367.156 237.930 L 366.062 238.981 365.906 237.366 L 365.750 235.750 361.875 235.604 L 358.000 235.458 358.000 238.762 C 358.000 240.579,357.767 242.501,357.482 243.033 C 357.198 243.565,357.162 244.000,357.402 244.000 C 357.643 244.000,357.872 248.878,357.911 254.840 C 357.984 265.889,358.160 266.890,359.916 266.245 C 360.282 266.110,361.801 266.000,363.291 266.000 L 366.000 266.000 366.000 257.313 C 366.000 246.142,367.073 242.153,369.795 243.198 C 370.225 243.363,370.420 243.275,370.246 242.994 C 369.833 242.325,373.138 242.356,374.628 243.036 C 377.008 244.120,377.243 245.132,377.347 254.750 C 377.482 267.289,377.067 266.284,382.027 266.085 L 386.131 265.920 385.887 254.835 C 385.622 242.807,385.301 241.194,382.598 238.312 C 379.618 235.133,374.229 234.103,370.250 235.951 M399.070 235.747 C 397.872 236.121,396.634 236.368,396.320 236.295 C 396.007 236.223,395.928 236.261,396.146 236.381 C 396.364 236.500,395.464 237.276,394.146 238.106 C 392.828 238.936,391.676 239.682,391.585 239.764 C 391.494 239.846,391.776 240.457,392.212 241.122 C 392.647 241.786,392.834 242.517,392.627 242.745 C 392.420 242.973,392.569 242.975,392.960 242.748 C 393.493 242.438,393.588 242.549,393.341 243.194 C 393.134 243.733,393.207 243.931,393.539 243.726 C 393.830 243.546,394.190 243.867,394.339 244.438 C 394.610 245.474,394.616 245.474,396.680 244.286 C 401.829 241.321,407.182 241.517,408.704 244.724 C 409.968 247.386,409.869 247.461,405.375 247.257 C 393.724 246.727,386.893 255.126,392.533 263.047 C 394.789 266.215,401.644 267.562,405.891 265.673 C 406.913 265.218,407.935 264.886,408.162 264.935 C 408.389 264.984,408.460 264.839,408.320 264.612 C 408.179 264.386,408.524 263.914,409.085 263.563 C 409.646 263.213,409.995 263.112,409.861 263.338 C 408.863 265.026,410.486 266.000,414.295 266.000 L 418.122 266.000 417.777 254.875 C 417.388 242.317,416.714 239.569,413.566 237.709 C 412.449 237.050,412.191 236.673,412.635 236.351 C 413.066 236.039,413.006 235.983,412.434 236.164 C 411.986 236.307,410.748 236.113,409.684 235.733 C 407.228 234.858,401.898 234.865,399.070 235.747 M323.500 235.898 C 323.500 236.138,324.626 239.203,326.003 242.709 C 327.380 246.216,328.357 249.347,328.173 249.667 C 327.990 249.988,328.030 250.077,328.263 249.866 C 328.495 249.654,329.206 250.761,329.843 252.325 C 331.190 255.638,331.194 255.657,330.375 255.242 C 330.031 255.068,330.124 255.234,330.581 255.611 C 331.038 255.988,332.210 258.274,333.185 260.693 L 334.958 265.090 333.187 269.420 C 332.212 271.801,331.069 274.020,330.646 274.350 C 329.525 275.225,331.358 275.585,335.995 275.399 L 339.727 275.250 344.637 262.750 C 347.338 255.875,350.848 246.931,352.437 242.875 L 355.328 235.500 350.768 235.500 L 346.207 235.500 345.606 237.750 C 345.275 238.988,344.765 240.000,344.472 240.000 C 344.180 240.000,344.062 240.197,344.211 240.437 C 344.467 240.851,340.168 254.361,339.545 255.100 C 339.382 255.293,337.740 251.018,335.896 245.600 L 332.543 235.750 328.022 235.606 C 325.535 235.527,323.500 235.659,323.500 235.898 M313.500 254.032 C 313.500 254.835,313.120 255.694,312.625 256.013 C 311.792 256.549,311.792 256.563,312.625 256.303 C 314.429 255.742,313.011 258.210,310.902 259.301 C 306.155 261.756,300.439 256.529,304.769 253.692 C 307.806 251.702,313.500 251.924,313.500 254.032 M409.500 253.967 C 409.500 258.512,404.985 261.339,400.783 259.424 C 399.763 258.959,399.579 258.608,399.832 257.600 C 400.051 256.729,399.972 256.458,399.573 256.705 C 399.241 256.910,399.000 256.748,399.000 256.320 C 399.000 253.738,401.231 252.548,406.125 252.520 L 409.500 252.500 409.500 253.967 M407.800 253.383 C 408.103 253.585,408.479 254.088,408.636 254.500 C 408.826 255.001,408.934 254.877,408.961 254.125 C 408.987 253.369,408.713 253.003,408.125 253.008 C 407.585 253.012,407.461 253.156,407.800 253.383 M322.539 276.375 C 322.518 276.719,321.926 277.000,321.225 277.000 C 317.206 277.000,313.646 280.756,313.282 285.381 C 313.101 287.678,313.045 287.752,311.423 287.828 C 310.503 287.871,309.490 287.927,309.173 287.953 C 308.600 288.000,307.990 292.656,308.398 293.875 C 308.527 294.261,309.541 294.500,311.053 294.500 L 313.500 294.500 313.500 306.142 L 313.500 317.785 317.491 317.786 L 321.482 317.787 321.616 306.268 L 321.750 294.750 324.875 294.777 L 328.000 294.804 328.000 291.426 L 328.000 288.048 324.875 287.899 C 321.764 287.751,321.750 287.744,321.855 286.295 C 322.005 284.216,322.723 283.736,325.506 283.855 C 327.914 283.957,327.968 283.927,328.270 282.321 C 328.921 278.848,328.421 277.266,326.616 277.093 C 325.717 277.006,325.111 276.725,325.269 276.469 C 325.445 276.185,325.071 276.188,324.312 276.476 C 323.429 276.812,322.996 276.775,322.823 276.350 C 322.640 275.900,322.569 275.907,322.539 276.375 M254.000 276.994 C 246.933 278.211,242.810 282.566,242.852 288.770 C 242.894 294.945,245.772 298.006,254.080 300.710 C 262.075 303.312,264.861 305.508,263.004 307.745 C 262.732 308.073,262.639 308.472,262.798 308.631 C 263.538 309.372,260.262 310.661,257.591 310.680 C 254.001 310.706,251.575 309.880,248.627 307.631 C 247.335 306.644,246.218 306.097,246.116 306.401 C 245.729 307.563,243.897 309.496,243.448 309.218 C 243.188 309.057,243.029 309.111,243.094 309.338 C 243.159 309.565,242.919 310.279,242.561 310.926 C 241.760 312.374,243.375 314.341,246.537 315.767 C 247.616 316.253,248.518 317.011,248.539 317.451 C 248.561 317.890,248.681 318.002,248.807 317.698 C 248.969 317.305,249.669 317.292,251.247 317.653 C 252.465 317.932,253.378 318.293,253.277 318.456 C 253.176 318.619,255.217 318.615,257.812 318.448 C 275.582 317.300,277.521 298.950,260.402 293.941 C 258.286 293.322,256.655 292.653,256.778 292.455 C 256.901 292.256,256.603 292.197,256.116 292.325 C 254.483 292.752,251.768 290.427,251.601 288.458 C 251.205 283.791,260.033 283.222,264.832 287.606 C 265.781 288.472,268.676 288.510,267.811 287.644 C 267.665 287.499,268.323 286.362,269.273 285.118 C 271.231 282.554,271.284 282.358,270.256 281.505 C 269.846 281.165,269.657 280.631,269.836 280.318 C 270.014 280.006,269.984 279.909,269.769 280.103 C 269.554 280.296,268.333 279.926,267.056 279.278 C 262.987 277.216,257.890 276.325,254.000 276.994 M340.199 280.582 C 340.057 280.812,338.717 281.000,337.220 281.000 L 334.500 281.000 334.500 284.538 L 334.500 288.077 332.625 287.914 L 330.750 287.751 330.602 291.440 C 330.461 294.944,330.505 295.115,331.477 294.861 C 332.040 294.714,332.500 294.781,332.500 295.010 C 332.500 295.239,332.106 295.531,331.625 295.658 C 331.144 295.785,331.353 295.866,332.089 295.838 C 332.825 295.810,333.318 295.611,333.184 295.394 C 332.956 295.024,333.667 294.849,334.275 295.125 C 334.426 295.194,334.595 298.850,334.650 303.250 C 334.795 314.841,336.379 317.585,343.349 318.313 C 347.108 318.706,351.689 317.417,351.293 316.079 C 351.158 315.623,350.906 314.575,350.733 313.750 C 350.213 311.267,349.371 309.399,349.026 309.959 C 348.245 311.222,345.604 311.150,344.283 309.829 C 343.032 308.577,343.000 308.377,343.000 301.773 L 343.000 295.000 344.625 294.907 C 345.519 294.855,346.976 294.799,347.864 294.782 C 348.751 294.764,349.482 294.581,349.489 294.375 C 349.495 294.169,349.500 292.558,349.500 290.796 L 349.500 287.591 347.125 287.781 C 343.237 288.091,343.063 287.931,342.896 283.888 C 342.755 280.446,341.349 278.723,340.199 280.582 M285.650 287.924 C 276.919 291.011,272.779 301.694,276.998 310.250 C 277.676 311.625,278.174 312.935,278.103 313.162 C 278.033 313.389,278.166 313.457,278.398 313.313 C 278.869 313.022,280.799 315.034,280.616 315.625 C 280.552 315.831,280.669 315.973,280.875 315.941 C 281.837 315.789,282.467 316.101,283.768 317.375 C 284.541 318.131,284.993 318.445,284.774 318.072 C 284.452 317.524,284.701 317.476,286.062 317.822 C 291.684 319.249,298.814 317.675,301.948 314.315 C 302.606 313.609,303.343 313.153,303.585 313.303 C 303.827 313.452,303.984 313.389,303.933 313.162 C 303.883 312.935,304.492 311.400,305.287 309.750 C 311.503 296.851,299.170 283.143,285.650 287.924 M295.759 296.009 C 296.690 296.883,296.849 297.287,296.380 297.585 C 295.918 297.878,295.970 297.987,296.576 297.992 C 297.583 298.002,298.500 300.431,298.500 303.091 C 298.500 305.566,297.233 308.703,296.433 308.209 C 296.093 307.998,295.978 308.060,296.161 308.356 C 297.447 310.436,290.239 311.847,287.374 310.077 C 282.701 307.189,282.940 297.775,287.750 295.253 C 289.952 294.098,294.147 294.494,295.759 296.009 " stroke="none" fill="#04121c" fill-rule="evenodd"></path><path id="path1" d="M206.164 178.934 C 194.598 183.244,190.917 196.874,198.848 206.023 L 200.346 207.750 194.382 221.250 C 182.145 248.950,175.518 263.869,173.662 267.897 L 171.750 272.045 162.278 253.068 L 152.807 234.092 153.778 231.934 C 155.023 229.168,155.171 222.229,154.000 221.489 C 153.588 221.229,153.475 221.008,153.750 221.000 C 154.083 220.990,154.083 220.862,153.750 220.617 C 152.710 219.853,151.667 218.263,152.500 218.712 C 152.912 218.934,152.238 218.203,151.000 217.088 C 149.762 215.972,148.131 214.916,147.375 214.740 C 146.619 214.564,146.000 214.264,146.000 214.072 C 146.000 211.913,134.851 215.521,132.582 218.414 C 130.315 221.303,128.703 231.354,130.704 230.123 C 130.953 229.969,131.031 230.329,130.875 230.923 C 130.720 231.516,130.774 231.890,130.994 231.754 C 131.497 231.443,132.102 232.931,131.722 233.545 C 131.567 233.795,131.658 234.000,131.924 234.000 C 132.626 234.000,131.983 236.038,131.183 236.345 C 130.811 236.488,130.618 236.786,130.754 237.007 C 131.128 237.611,130.462 239.035,129.953 238.721 C 129.710 238.571,129.627 238.749,129.768 239.117 C 129.909 239.484,129.583 240.260,129.042 240.839 C 128.502 241.419,128.170 242.003,128.304 242.137 C 128.583 242.416,125.034 249.094,124.360 249.556 C 124.115 249.724,123.967 249.949,124.031 250.056 C 124.358 250.604,123.354 252.469,122.887 252.180 C 122.578 251.989,122.489 252.077,122.679 252.385 C 123.108 253.080,121.995 255.556,121.414 255.197 C 121.173 255.048,121.026 255.111,121.089 255.338 C 121.294 256.078,119.829 259.453,119.415 259.197 C 119.193 259.060,119.160 259.334,119.341 259.806 C 119.582 260.434,119.493 260.554,119.008 260.255 C 118.587 259.995,118.465 260.040,118.674 260.378 C 119.141 261.132,118.500 262.559,117.870 262.170 C 117.580 261.990,117.492 262.083,117.674 262.378 C 118.141 263.132,117.500 264.559,116.870 264.170 C 116.577 263.988,116.493 264.083,116.679 264.385 C 117.136 265.125,115.976 267.544,115.350 267.157 C 115.072 266.986,114.992 267.082,115.171 267.372 C 115.350 267.662,115.052 268.878,114.509 270.074 C 113.966 271.271,113.517 272.054,113.511 271.814 C 113.505 271.574,113.120 271.686,112.656 272.064 C 111.918 272.665,111.854 272.641,112.141 271.875 C 112.321 271.394,112.237 271.000,111.955 271.000 C 111.672 271.000,111.581 270.773,111.752 270.496 C 111.924 270.219,111.710 269.638,111.277 269.206 C 110.845 268.773,110.619 268.213,110.775 267.960 C 110.931 267.707,110.807 267.500,110.500 267.500 C 110.193 267.500,110.080 267.275,110.250 267.000 C 110.420 266.725,110.307 266.500,110.000 266.500 C 109.693 266.500,109.604 266.237,109.803 265.915 C 110.047 265.520,109.890 265.435,109.320 265.654 C 108.610 265.927,108.561 265.821,109.010 264.982 C 109.418 264.220,109.391 264.017,108.896 264.118 C 108.512 264.196,108.266 263.794,108.290 263.125 C 108.312 262.506,108.150 262.000,107.930 262.000 C 107.711 262.000,107.675 261.626,107.851 261.168 C 108.084 260.560,107.990 260.447,107.500 260.750 C 107.006 261.055,106.917 260.938,107.159 260.306 C 107.381 259.728,107.300 259.565,106.909 259.806 C 106.519 260.047,106.437 259.884,106.659 259.306 C 106.841 258.833,106.783 258.575,106.530 258.731 C 106.009 259.054,105.299 257.230,105.696 256.588 C 105.839 256.356,105.652 256.167,105.280 256.167 C 104.713 256.167,104.715 256.482,105.290 258.114 L 105.977 260.061 104.614 259.905 C 102.974 259.719,102.266 260.681,103.875 260.910 C 104.494 260.998,105.000 261.419,105.000 261.846 C 105.000 262.469,104.856 262.503,104.272 262.018 C 103.871 261.686,103.274 261.581,102.945 261.784 C 102.566 262.018,102.477 261.942,102.702 261.577 C 102.908 261.244,102.758 261.000,102.348 261.000 C 101.457 261.000,101.511 262.890,102.417 263.449 C 102.944 263.775,102.904 263.930,102.224 264.191 C 101.420 264.499,101.425 264.594,102.294 265.635 C 102.805 266.248,102.929 266.495,102.570 266.183 C 101.682 265.413,100.016 265.915,100.095 266.929 C 100.266 269.139,99.944 271.500,99.470 271.500 C 99.179 271.500,99.100 271.219,99.294 270.875 C 99.549 270.423,99.486 270.397,99.066 270.783 C 98.627 271.185,98.683 271.713,99.294 272.939 C 99.740 273.832,99.972 274.695,99.810 274.857 C 99.648 275.019,99.871 275.411,100.305 275.728 C 100.739 276.045,101.129 276.890,101.172 277.605 C 101.215 278.319,101.384 278.822,101.547 278.721 C 101.710 278.620,102.083 279.317,102.375 280.269 C 102.833 281.760,102.792 282.001,102.078 282.008 C 101.371 282.014,101.358 282.084,101.988 282.482 C 102.591 282.863,102.499 283.039,101.488 283.443 C 100.807 283.714,100.438 283.951,100.667 283.968 C 101.003 283.994,98.558 287.507,97.513 288.500 C 97.368 288.637,97.234 288.975,97.214 289.250 C 97.085 291.030,96.317 293.946,96.025 293.765 C 95.832 293.646,95.846 294.816,96.056 296.366 C 96.267 297.916,96.418 299.311,96.392 299.467 C 96.299 300.034,97.937 303.285,98.991 304.625 C 99.586 305.381,99.940 306.000,99.777 306.000 C 99.029 306.000,103.229 309.538,104.295 309.806 C 104.958 309.972,105.500 310.347,105.500 310.638 C 105.500 310.929,105.633 311.034,105.795 310.871 C 105.958 310.709,107.026 310.916,108.170 311.330 C 112.867 313.033,124.432 309.736,124.489 306.678 C 124.495 306.364,124.828 305.981,125.230 305.827 C 126.654 305.280,128.636 300.421,128.893 296.843 C 129.251 291.884,127.990 288.096,124.888 284.807 C 123.562 283.401,122.566 281.913,122.677 281.500 C 122.788 281.087,122.962 280.418,123.064 280.012 C 123.166 279.606,123.522 278.981,123.854 278.622 C 124.186 278.264,124.316 277.603,124.144 277.154 C 123.950 276.648,124.031 276.460,124.357 276.662 C 124.861 276.973,126.368 274.162,126.119 273.375 C 126.053 273.169,126.238 273.000,126.530 273.000 C 126.821 273.000,126.920 272.775,126.750 272.500 C 126.580 272.225,126.664 272.000,126.937 272.000 C 127.369 272.000,128.154 270.416,128.225 269.400 C 128.239 269.207,128.531 268.769,128.875 268.425 C 129.219 268.081,129.500 267.518,129.500 267.174 C 129.500 266.100,130.625 264.018,131.060 264.287 C 131.288 264.428,131.737 263.502,132.057 262.229 C 132.378 260.956,132.945 259.798,133.317 259.655 C 133.690 259.512,133.870 259.194,133.718 258.948 C 133.565 258.701,133.693 258.500,134.000 258.500 C 134.307 258.500,134.420 258.275,134.250 258.000 C 134.080 257.725,134.193 257.500,134.500 257.500 C 134.807 257.500,134.920 257.275,134.750 257.000 C 134.580 256.725,134.693 256.500,135.000 256.500 C 135.307 256.500,135.420 256.275,135.250 256.000 C 135.080 255.725,135.152 255.500,135.410 255.500 C 135.908 255.500,137.319 252.507,137.119 251.875 C 137.053 251.669,137.238 251.500,137.530 251.500 C 137.821 251.500,137.920 251.275,137.750 251.000 C 137.580 250.725,137.693 250.500,138.000 250.500 C 138.307 250.500,138.432 250.294,138.276 250.043 C 138.121 249.791,138.222 249.509,138.502 249.416 C 138.781 249.323,139.108 248.737,139.228 248.115 C 139.348 247.492,139.796 246.633,140.223 246.206 C 140.650 245.778,141.003 245.276,141.008 245.089 C 141.028 244.198,141.915 243.499,142.662 243.785 C 143.120 243.961,143.370 244.306,143.218 244.552 C 143.065 244.799,143.217 245.000,143.554 245.000 C 143.891 245.000,144.027 245.140,143.857 245.310 C 143.509 245.658,146.362 251.579,147.107 252.056 C 147.370 252.224,147.565 252.506,147.540 252.682 C 147.514 252.859,148.901 255.759,150.622 259.127 C 152.342 262.494,153.734 265.630,153.713 266.096 C 153.693 266.561,153.863 266.898,154.090 266.846 C 154.318 266.793,156.278 270.121,158.446 274.241 L 162.388 281.732 159.979 284.368 C 150.191 295.077,157.511 311.750,172.000 311.750 C 186.548 311.750,194.100 295.349,184.427 284.765 L 181.938 282.041 186.179 272.646 C 191.010 261.945,199.306 243.068,207.258 224.683 L 212.694 212.116 215.222 211.549 C 228.596 208.549,232.939 191.945,222.795 182.595 C 221.587 181.481,220.744 180.405,220.924 180.204 C 221.103 180.004,220.993 179.986,220.679 180.166 C 220.365 180.345,219.065 180.030,217.788 179.466 C 214.394 177.964,209.383 177.735,206.164 178.934 M132.000 229.030 C 132.000 229.596,131.775 229.920,131.500 229.750 C 131.225 229.580,131.000 229.117,131.000 228.720 C 131.000 228.324,131.225 228.000,131.500 228.000 C 131.775 228.000,132.000 228.463,132.000 229.030 M98.242 242.000 C 98.443 242.688,98.930 243.588,99.325 244.000 C 99.846 244.544,99.810 244.270,99.195 243.000 C 98.111 240.766,97.778 240.416,98.242 242.000 M100.535 247.250 C 100.535 247.525,100.857 248.313,101.250 249.000 C 101.643 249.688,101.965 250.025,101.965 249.750 C 101.965 249.475,101.643 248.688,101.250 248.000 C 100.857 247.313,100.535 246.975,100.535 247.250 M102.016 250.779 C 101.977 252.074,103.312 253.211,103.696 252.210 C 103.892 251.699,103.894 251.439,103.701 251.632 C 103.507 251.826,103.053 251.594,102.690 251.117 C 102.328 250.640,102.025 250.488,102.016 250.779 M102.225 253.613 C 102.308 253.963,102.628 254.194,102.938 254.125 C 103.247 254.056,103.500 254.338,103.500 254.750 C 103.500 255.162,103.725 255.500,104.000 255.500 C 104.611 255.500,104.629 254.977,104.048 254.061 C 103.808 253.682,103.381 253.515,103.099 253.689 C 102.816 253.864,102.471 253.774,102.330 253.491 C 102.190 253.207,102.142 253.262,102.225 253.613 M103.190 256.726 C 103.037 257.125,103.043 257.664,103.203 257.924 C 103.525 258.444,102.110 259.216,101.125 259.057 C 100.781 259.002,100.500 259.171,100.500 259.434 C 100.500 259.938,101.084 259.914,102.792 259.337 C 103.536 259.086,103.833 258.560,103.833 257.493 C 103.833 255.858,103.620 255.604,103.190 256.726 M100.297 262.424 C 100.130 262.694,100.276 263.048,100.622 263.210 C 100.967 263.373,100.575 263.389,99.750 263.246 C 98.536 263.036,98.417 263.088,99.125 263.518 C 99.606 263.810,100.000 264.376,100.000 264.775 C 100.000 265.174,100.301 265.500,100.670 265.500 C 101.100 265.500,101.307 264.964,101.250 263.997 C 101.150 262.325,100.758 261.678,100.297 262.424 M98.168 265.834 C 98.352 266.018,98.160 266.547,97.742 267.009 C 97.062 267.760,97.062 268.004,97.738 269.300 C 98.153 270.097,98.495 270.401,98.497 269.975 C 98.499 269.549,98.233 268.933,97.907 268.607 C 97.449 268.149,97.583 267.726,98.494 266.757 C 99.552 265.630,99.579 265.500,98.754 265.500 C 98.248 265.500,97.984 265.650,98.168 265.834 " stroke="none" fill="#04adf0" fill-rule="evenodd"></path><path id="path2" d="M66.571 179.481 C 64.079 180.395,60.467 182.692,60.082 183.607 C 59.990 183.827,59.653 183.856,59.332 183.673 C 59.012 183.490,58.901 183.508,59.086 183.714 C 59.271 183.920,58.807 185.137,58.056 186.419 C 55.920 190.062,55.739 190.627,55.462 194.500 C 55.293 196.870,56.778 201.807,58.395 204.250 C 59.124 205.350,59.651 206.475,59.568 206.750 C 59.485 207.025,59.583 207.083,59.787 206.879 C 60.275 206.392,61.572 207.479,61.207 208.069 C 61.052 208.320,61.111 208.493,61.338 208.453 C 62.346 208.278,63.034 208.541,62.754 208.994 C 62.572 209.288,62.796 209.355,63.306 209.159 C 63.856 208.948,64.044 209.024,63.830 209.371 C 63.622 209.708,64.251 210.039,65.500 210.250 C 66.730 210.458,67.377 210.794,67.175 211.122 C 66.976 211.443,67.083 211.507,67.445 211.284 C 67.774 211.081,68.350 211.168,68.724 211.478 C 69.098 211.789,69.963 211.903,70.646 211.731 C 71.584 211.496,72.079 211.694,72.671 212.540 C 73.362 213.526,73.563 213.576,74.353 212.963 C 75.196 212.309,75.202 212.327,74.451 213.259 C 74.012 213.804,73.489 214.588,73.289 215.000 C 73.089 215.412,73.265 215.334,73.680 214.825 C 74.094 214.316,74.678 214.051,74.977 214.236 C 75.325 214.451,75.112 214.934,74.386 215.574 C 73.761 216.125,73.513 216.444,73.835 216.283 C 74.187 216.107,74.654 216.701,75.010 217.779 C 75.334 218.762,75.696 219.471,75.814 219.353 C 75.932 219.235,75.820 218.591,75.565 217.922 C 75.166 216.872,75.250 216.698,76.176 216.653 C 76.767 216.625,76.969 216.710,76.625 216.843 C 75.639 217.222,75.897 218.100,76.901 217.781 C 77.397 217.624,78.241 217.851,78.776 218.285 C 79.312 218.719,79.484 218.941,79.158 218.778 C 78.764 218.581,78.581 218.986,78.609 219.991 C 78.657 221.660,79.500 222.114,79.500 220.470 C 79.500 219.904,79.692 219.560,79.926 219.704 C 80.161 219.849,80.780 219.634,81.301 219.227 C 81.973 218.702,82.031 218.524,81.500 218.618 C 81.088 218.690,80.612 218.938,80.444 219.167 C 80.276 219.397,80.016 219.116,79.866 218.542 C 79.685 217.851,79.830 217.500,80.297 217.500 C 80.684 217.500,81.000 217.275,81.000 217.000 C 81.000 216.725,80.775 216.500,80.500 216.500 C 80.225 216.500,80.000 216.088,80.000 215.583 C 80.000 214.208,81.280 214.479,81.396 215.878 C 81.527 217.458,81.944 218.094,82.588 217.696 C 82.922 217.489,82.866 217.222,82.428 216.945 C 81.929 216.629,81.915 216.513,82.375 216.508 C 83.233 216.497,83.161 215.233,82.251 214.323 C 81.541 213.613,81.718 211.766,82.452 212.221 C 82.643 212.339,83.086 211.976,83.437 211.415 C 83.960 210.577,83.956 210.466,83.412 210.794 C 82.907 211.097,82.916 210.988,83.449 210.331 C 84.086 209.546,84.228 209.652,85.074 211.540 C 86.233 214.129,86.228 214.324,85.000 214.645 C 83.681 214.990,83.120 214.014,84.188 213.233 C 84.943 212.681,84.949 212.587,84.239 212.315 C 83.804 212.148,83.571 212.210,83.721 212.453 C 83.871 212.696,83.633 213.034,83.191 213.204 C 82.505 213.467,82.487 213.632,83.069 214.333 C 83.443 214.784,83.697 215.625,83.633 216.202 C 83.524 217.181,83.543 217.186,83.921 216.287 C 84.658 214.531,86.157 214.456,87.047 216.130 C 87.699 217.360,87.901 217.479,88.166 216.789 C 88.382 216.226,88.297 216.066,87.909 216.306 C 87.519 216.547,87.437 216.384,87.659 215.806 C 87.841 215.333,87.783 215.075,87.530 215.231 C 86.936 215.599,86.326 213.686,86.795 212.927 C 87.006 212.586,86.938 212.480,86.630 212.670 C 86.044 213.032,84.320 209.195,84.754 208.493 C 84.904 208.251,84.575 208.139,84.024 208.245 C 82.610 208.518,82.393 207.868,83.295 206.061 C 84.159 204.329,84.736 203.970,84.263 205.458 C 84.090 206.005,84.236 206.575,84.605 206.788 C 84.960 206.993,85.094 206.987,84.902 206.774 C 84.711 206.562,85.244 205.166,86.087 203.673 C 86.930 202.179,87.675 200.348,87.743 199.604 C 87.885 198.044,88.429 193.933,88.779 191.767 C 88.998 190.412,88.959 190.364,88.335 191.218 C 87.803 191.946,87.564 192.007,87.249 191.498 C 86.966 191.041,87.040 190.966,87.496 191.247 C 88.274 191.728,87.859 189.616,86.724 187.314 C 86.335 186.525,86.160 185.646,86.335 185.362 C 86.513 185.075,86.413 184.995,86.110 185.182 C 85.810 185.367,84.970 184.739,84.242 183.784 C 83.514 182.830,81.822 181.503,80.482 180.835 C 79.142 180.167,78.204 179.445,78.398 179.230 C 78.592 179.015,78.469 179.002,78.125 179.199 C 77.781 179.397,77.238 179.397,76.919 179.200 C 75.513 178.331,69.244 178.501,66.571 179.481 M83.122 204.332 C 82.776 204.471,82.598 204.754,82.725 204.959 C 82.852 205.165,82.628 205.333,82.228 205.333 C 81.828 205.333,81.500 205.165,81.500 204.958 C 81.500 204.553,82.443 204.079,83.250 204.079 C 83.525 204.079,83.467 204.193,83.122 204.332 M78.385 213.250 C 78.442 213.938,78.273 214.500,78.010 214.500 C 77.747 214.500,77.661 214.838,77.819 215.250 C 77.977 215.662,77.858 216.000,77.553 216.000 C 77.249 216.000,77.056 215.719,77.125 215.375 C 77.194 215.031,76.969 214.806,76.625 214.875 C 75.744 215.051,76.072 213.914,77.202 212.875 C 78.373 211.798,78.262 211.763,78.385 213.250 " stroke="none" fill="#04c4d0" fill-rule="evenodd"></path><path id="path3" d="M88.189 195.981 C 87.908 197.355,87.859 198.765,88.081 199.114 C 88.303 199.464,88.507 199.637,88.534 199.500 C 88.561 199.363,88.657 198.800,88.747 198.250 C 88.837 197.700,89.036 196.712,89.190 196.054 C 89.344 195.396,89.297 194.548,89.085 194.170 C 88.837 193.727,88.520 194.368,88.189 195.981 M85.320 202.248 C 85.143 202.709,85.299 202.854,85.775 202.671 C 86.718 202.309,86.696 202.997,85.722 204.389 C 85.294 205.000,85.133 205.500,85.364 205.500 C 86.517 205.500,87.465 202.718,86.513 202.124 C 85.786 201.670,85.532 201.697,85.320 202.248 M82.125 204.331 C 81.269 204.677,81.336 205.333,82.228 205.333 C 82.628 205.333,82.852 205.165,82.725 204.959 C 82.598 204.754,82.776 204.471,83.122 204.332 C 83.467 204.193,83.525 204.079,83.250 204.079 C 82.975 204.079,82.469 204.192,82.125 204.331 M83.295 206.061 C 82.454 207.747,82.624 208.613,83.716 208.194 C 84.125 208.037,84.380 207.243,84.350 206.216 C 84.291 204.120,84.265 204.116,83.295 206.061 M83.790 209.848 C 83.261 210.572,83.109 210.992,83.451 210.780 C 83.935 210.481,83.932 210.622,83.437 211.415 C 83.086 211.976,82.643 212.339,82.452 212.221 C 81.718 211.766,81.541 213.613,82.251 214.323 C 83.161 215.233,83.233 216.497,82.375 216.508 C 81.915 216.513,81.929 216.629,82.428 216.945 C 82.866 217.222,82.922 217.489,82.588 217.696 C 81.944 218.094,81.527 217.458,81.396 215.878 C 81.280 214.479,80.000 214.208,80.000 215.583 C 80.000 216.088,80.225 216.500,80.500 216.500 C 80.775 216.500,81.000 216.725,81.000 217.000 C 81.000 217.275,80.684 217.500,80.297 217.500 C 79.830 217.500,79.685 217.851,79.866 218.542 C 80.016 219.116,80.276 219.397,80.444 219.167 C 80.612 218.938,81.088 218.690,81.500 218.618 C 82.031 218.524,81.973 218.702,81.301 219.227 C 80.780 219.634,80.161 219.849,79.926 219.704 C 79.692 219.560,79.500 219.904,79.500 220.470 C 79.500 222.114,78.657 221.660,78.609 219.991 C 78.581 218.986,78.764 218.581,79.158 218.778 C 79.484 218.941,79.312 218.719,78.776 218.285 C 78.241 217.851,77.397 217.624,76.901 217.781 C 75.895 218.101,75.644 217.231,76.625 216.823 C 76.969 216.680,76.688 216.645,76.000 216.744 C 75.313 216.844,74.593 216.942,74.401 216.963 C 73.871 217.019,75.027 220.000,75.578 220.000 C 75.843 220.000,75.940 220.192,75.796 220.426 C 75.651 220.661,75.874 221.280,76.292 221.801 C 77.015 222.704,77.037 222.690,76.752 221.500 C 76.493 220.421,76.529 220.373,77.016 221.151 C 77.438 221.827,77.429 222.234,76.978 222.776 C 76.491 223.363,76.554 223.507,77.314 223.539 C 77.829 223.561,77.991 223.685,77.675 223.814 C 76.706 224.212,78.479 228.114,79.459 227.742 C 80.062 227.512,80.112 227.580,79.668 228.027 C 79.035 228.665,81.993 236.368,83.155 237.106 C 83.482 237.314,83.591 237.488,83.397 237.492 C 83.029 237.500,85.887 244.564,86.436 245.000 C 86.609 245.137,86.829 245.700,86.925 246.250 C 87.021 246.800,87.246 247.363,87.425 247.500 C 87.604 247.637,87.817 248.064,87.900 248.449 C 87.982 248.833,90.315 254.233,93.085 260.449 C 95.854 266.664,98.444 272.506,98.839 273.429 C 99.235 274.353,99.681 274.985,99.831 274.835 C 99.982 274.685,99.740 273.832,99.294 272.939 C 98.683 271.713,98.627 271.185,99.066 270.783 C 99.486 270.397,99.549 270.423,99.294 270.875 C 99.100 271.219,99.179 271.500,99.470 271.500 C 99.944 271.500,100.266 269.139,100.095 266.929 C 100.016 265.915,101.682 265.413,102.570 266.183 C 102.929 266.495,102.805 266.248,102.294 265.635 C 101.425 264.594,101.420 264.499,102.224 264.191 C 102.904 263.930,102.944 263.775,102.417 263.449 C 101.511 262.890,101.457 261.000,102.348 261.000 C 102.758 261.000,102.908 261.244,102.702 261.577 C 102.477 261.942,102.566 262.018,102.945 261.784 C 103.274 261.581,103.871 261.686,104.272 262.018 C 104.856 262.503,105.000 262.469,105.000 261.846 C 105.000 261.419,104.494 260.998,103.875 260.910 C 102.266 260.681,102.974 259.719,104.614 259.905 L 105.977 260.061 105.261 258.030 C 104.259 255.192,104.755 255.495,106.054 258.515 C 106.649 259.899,107.214 260.952,107.310 260.857 C 107.608 260.559,104.854 254.000,104.432 254.000 C 104.211 254.000,104.161 254.338,104.319 254.750 C 104.477 255.162,104.358 255.500,104.053 255.500 C 103.749 255.500,103.500 255.163,103.500 254.750 C 103.500 254.338,103.247 254.056,102.937 254.125 C 102.628 254.194,102.273 253.912,102.149 253.500 C 102.004 253.017,102.071 252.948,102.337 253.307 C 103.516 254.895,104.409 253.273,103.470 251.250 C 102.959 250.150,101.273 246.325,99.724 242.750 C 98.174 239.176,96.683 236.113,96.410 235.944 C 96.138 235.776,95.934 235.495,95.957 235.319 C 95.981 235.144,95.983 234.944,95.962 234.875 C 95.941 234.806,95.848 234.352,95.755 233.866 C 95.662 233.380,94.857 231.467,93.966 229.616 C 93.075 227.765,92.294 226.025,92.230 225.750 C 91.924 224.435,87.976 215.781,87.462 215.298 C 87.034 214.897,87.039 215.063,87.479 215.918 C 87.810 216.560,87.981 217.186,87.858 217.309 C 87.735 217.432,87.363 216.875,87.030 216.073 C 86.326 214.374,84.718 214.438,83.963 216.194 L 83.509 217.250 83.630 216.202 C 83.696 215.625,83.443 214.784,83.069 214.333 C 82.487 213.632,82.505 213.467,83.191 213.204 C 83.633 213.034,83.871 212.696,83.721 212.453 C 83.571 212.210,83.804 212.148,84.239 212.315 C 84.949 212.587,84.943 212.681,84.188 213.233 C 83.726 213.572,83.494 214.086,83.674 214.377 C 84.138 215.127,85.904 214.557,86.165 213.574 C 86.357 212.852,86.391 212.858,86.442 213.625 C 86.474 214.106,86.733 214.500,87.018 214.500 C 87.366 214.500,87.358 214.169,86.993 213.486 C 86.694 212.928,86.260 212.590,86.027 212.733 C 85.323 213.168,84.918 211.365,85.608 210.868 C 86.068 210.537,86.002 210.485,85.375 210.687 C 84.801 210.872,84.500 210.706,84.500 210.205 C 84.500 209.785,84.722 209.578,84.994 209.746 C 85.278 209.922,85.362 209.721,85.191 209.276 C 84.824 208.321,84.937 208.275,83.790 209.848 M65.320 210.520 C 65.597 210.797,66.314 211.118,66.914 211.233 C 67.513 211.349,68.284 211.602,68.627 211.795 C 69.078 212.050,69.103 211.986,68.716 211.565 C 68.423 211.244,67.425 210.765,66.500 210.500 C 65.372 210.176,64.983 210.183,65.320 210.520 M77.202 212.875 C 76.072 213.914,75.744 215.051,76.625 214.875 C 76.969 214.806,77.194 215.031,77.125 215.375 C 77.056 215.719,77.249 216.000,77.553 216.000 C 77.858 216.000,77.977 215.662,77.819 215.250 C 77.661 214.838,77.747 214.500,78.010 214.500 C 78.273 214.500,78.442 213.938,78.385 213.250 C 78.262 211.763,78.373 211.798,77.202 212.875 M72.768 213.500 C 72.951 214.188,73.412 214.997,73.793 215.299 C 74.173 215.602,74.319 216.031,74.117 216.255 C 73.915 216.478,74.035 216.496,74.383 216.296 C 74.731 216.095,74.887 215.721,74.729 215.465 C 74.570 215.209,74.724 215.000,75.070 215.000 C 75.572 215.000,75.574 214.874,75.079 214.379 C 74.585 213.885,74.362 213.910,73.987 214.504 C 73.727 214.914,73.512 215.043,73.508 214.789 C 73.503 214.536,73.894 213.865,74.375 213.298 C 75.215 212.309,75.213 212.296,74.337 212.976 C 73.548 213.589,73.357 213.588,72.929 212.968 C 72.571 212.448,72.527 212.596,72.768 213.500 M139.750 213.506 C 131.756 215.222,127.443 223.417,130.572 230.945 C 131.954 234.271,132.281 233.992,130.988 230.590 C 127.684 221.895,133.364 214.000,142.922 214.000 C 144.432 214.000,145.573 213.912,145.458 213.805 C 145.025 213.398,141.189 213.197,139.750 213.506 M131.000 228.720 C 131.000 229.117,131.225 229.580,131.500 229.750 C 131.775 229.920,132.000 229.596,132.000 229.030 C 132.000 228.463,131.775 228.000,131.500 228.000 C 131.225 228.000,131.000 228.324,131.000 228.720 M131.518 234.967 C 130.884 236.151,130.855 236.649,131.440 236.287 C 131.881 236.015,132.569 234.000,132.221 234.000 C 132.119 234.000,131.802 234.435,131.518 234.967 M129.615 239.115 C 128.999 240.241,128.568 241.235,128.658 241.325 C 128.748 241.415,129.335 240.577,129.962 239.462 C 130.588 238.347,131.019 237.352,130.919 237.252 C 130.818 237.152,130.232 237.990,129.615 239.115 M99.195 243.000 C 99.810 244.270,99.846 244.544,99.325 244.000 C 98.930 243.588,98.443 242.688,98.242 242.000 C 97.778 240.416,98.111 240.766,99.195 243.000 M126.114 245.715 C 125.023 247.797,124.270 249.496,124.440 249.491 C 124.860 249.480,128.583 242.416,128.312 242.145 C 128.193 242.027,127.204 243.633,126.114 245.715 M101.965 249.750 C 101.965 250.025,101.643 249.688,101.250 249.000 C 100.857 248.313,100.535 247.525,100.535 247.250 C 100.535 246.975,100.857 247.313,101.250 248.000 C 101.643 248.688,101.965 249.475,101.965 249.750 M122.153 253.625 C 118.089 261.242,113.456 271.113,113.684 271.670 C 113.850 272.075,113.933 272.059,113.961 271.617 C 113.982 271.268,116.349 266.262,119.219 260.492 C 124.416 250.045,125.835 246.723,122.153 253.625 M103.484 252.721 C 103.475 253.012,103.138 252.813,102.734 252.279 C 102.330 251.746,102.007 251.071,102.016 250.779 C 102.025 250.488,102.362 250.687,102.766 251.221 C 103.170 251.754,103.493 252.429,103.484 252.721 M103.833 257.493 C 103.833 258.560,103.536 259.086,102.792 259.337 C 101.084 259.914,100.500 259.938,100.500 259.434 C 100.500 259.171,100.781 259.002,101.125 259.057 C 102.110 259.216,103.525 258.444,103.203 257.924 C 102.925 257.474,103.268 256.000,103.651 256.000 C 103.751 256.000,103.833 256.672,103.833 257.493 M101.250 263.997 C 101.307 264.964,101.100 265.500,100.670 265.500 C 100.301 265.500,100.000 265.174,100.000 264.775 C 100.000 264.376,99.606 263.810,99.125 263.518 C 98.417 263.088,98.536 263.036,99.750 263.246 C 100.575 263.389,100.967 263.373,100.622 263.210 C 100.276 263.048,100.130 262.694,100.297 262.424 C 100.758 261.678,101.150 262.325,101.250 263.997 M108.020 263.095 C 108.009 263.561,108.240 264.090,108.534 264.271 C 108.828 264.453,108.927 264.972,108.754 265.426 C 108.519 266.044,108.584 266.108,109.015 265.680 C 109.448 265.251,109.398 264.757,108.815 263.680 C 108.303 262.735,108.033 262.537,108.020 263.095 M130.081 265.271 C 129.243 267.110,129.403 267.502,130.309 265.831 C 130.732 265.050,130.985 264.318,130.870 264.204 C 130.756 264.089,130.401 264.570,130.081 265.271 M98.494 266.757 C 97.583 267.726,97.449 268.149,97.907 268.607 C 98.233 268.933,98.499 269.549,98.497 269.975 C 98.495 270.401,98.153 270.097,97.738 269.300 C 97.062 268.004,97.062 267.760,97.742 267.009 C 98.160 266.547,98.352 266.018,98.168 265.834 C 97.984 265.650,98.248 265.500,98.754 265.500 C 99.579 265.500,99.552 265.630,98.494 266.757 M100.017 275.775 C 100.026 276.036,100.469 277.150,101.000 278.250 C 101.531 279.350,101.974 280.518,101.983 280.845 C 101.992 281.173,102.227 281.581,102.505 281.753 C 102.783 281.925,102.530 280.757,101.943 279.158 C 100.926 276.386,99.979 274.723,100.017 275.775 M99.036 285.864 C 98.191 286.889,97.500 287.939,97.500 288.197 C 97.500 288.455,97.569 288.573,97.654 288.458 C 97.738 288.344,98.544 287.294,99.446 286.125 C 101.464 283.507,101.146 283.304,99.036 285.864 M96.849 289.342 C 96.347 290.158,95.394 295.929,95.654 296.581 C 95.801 296.949,95.939 296.680,95.961 295.984 C 95.982 295.288,96.319 293.488,96.709 291.985 C 97.374 289.423,97.428 288.401,96.849 289.342 " stroke="none" fill="#04b9d2" fill-rule="evenodd"></path><path id="path4" d="M66.650 178.931 C 61.936 180.560,56.000 186.449,56.000 189.496 C 56.000 189.911,56.641 189.039,57.424 187.559 C 60.586 181.581,65.220 178.761,71.878 178.763 C 74.148 178.764,75.610 178.609,75.128 178.418 C 73.495 177.772,69.264 178.028,66.650 178.931 M80.000 180.500 C 80.963 181.027,81.975 181.458,82.250 181.458 C 82.525 181.458,81.963 181.027,81.000 180.500 C 80.037 179.973,79.025 179.542,78.750 179.542 C 78.475 179.542,79.037 179.973,80.000 180.500 M84.453 183.717 C 85.376 184.799,86.547 186.599,87.055 187.717 C 87.563 188.835,87.983 189.400,87.989 188.973 C 88.004 187.942,85.458 184.008,83.962 182.750 C 83.253 182.153,83.450 182.543,84.453 183.717 M56.006 200.645 C 55.993 201.523,57.968 204.813,59.072 205.750 L 60.250 206.750 59.414 205.750 C 58.955 205.200,58.001 203.738,57.295 202.500 C 56.590 201.262,56.009 200.428,56.006 200.645 " stroke="none" fill="#04b7c4" fill-rule="evenodd"></path></g></svg>